<?xml version="1.0" encoding="utf-8"?>
<svg version="1.1" xmlns:xlink="http://www.w3.org/1999/xlink" width="30px" height="30px" xmlns="http://www.w3.org/2000/svg">
  <g transform="matrix(1 0 0 1 -210 -15 )">
    <path d="M 225 15  C 233.4 15  240 21.6  240 30  C 240 38.400000000000006  233.4 45  225 45  C 216.6 45  210 38.400000000000006  210 30  C 210 21.6  216.6 15  225 15  Z " fill-rule="nonzero" fill="#ffffff" stroke="none" />
    <path d="M 225 15.5  C 233.12 15.5  239.5 21.88  239.5 30  C 239.5 38.120000000000005  233.12 44.5  225 44.5  C 216.88 44.5  210.5 38.120000000000005  210.5 30  C 210.5 21.88  216.88 15.5  225 15.5  Z " stroke-width="1" stroke="#02a7f0" fill="none" />
  </g>
</svg>