<?xml version="1.0" encoding="utf-8"?>
<svg version="1.1" xmlns:xlink="http://www.w3.org/1999/xlink" width="30px" height="30px" xmlns="http://www.w3.org/2000/svg">
  <g transform="matrix(1 0 0 1 -200 -10 )">
    <path d="M 215 12  C 222.28 12  228 17.72  228 25  C 228 32.28  222.28 38  215 38  C 207.72 38  202 32.28  202 25  C 202 17.72  207.72 12  215 12  Z " fill-rule="nonzero" fill="#ffffff" stroke="none" />
    <path d="M 215 11.5  C 222.56 11.5  228.5 17.439999999999998  228.5 25  C 228.5 32.56  222.56 38.5  215 38.5  C 207.44 38.5  201.5 32.56  201.5 25  C 201.5 17.439999999999998  207.44 11.5  215 11.5  Z " stroke-width="3" stroke="#02a7f0" fill="none" />
  </g>
</svg>