<?xml version="1.0" encoding="utf-8"?>
<svg version="1.1" xmlns:xlink="http://www.w3.org/1999/xlink" width="16px" height="16px" viewBox="3507 161  16 16" xmlns="http://www.w3.org/2000/svg">
  <path d="M 3515 161  C 3519.48 161  3523 164.52  3523 169  C 3523 173.48  3519.48 177  3515 177  C 3510.52 177  3507 173.48  3507 169  C 3507 164.52  3510.52 161  3515 161  Z " fill-rule="nonzero" fill="#ffffff" stroke="none" />
  <path d="M 3515 161.5  C 3519.2 161.5  3522.5 164.8  3522.5 169  C 3522.5 173.2  3519.2 176.5  3515 176.5  C 3510.8 176.5  3507.5 173.2  3507.5 169  C 3507.5 164.8  3510.8 161.5  3515 161.5  Z " stroke-width="1" stroke="#8c8c8c" fill="none" />
  <path d="M 3515 173  C 3512.76 173  3511 171.24  3511 169  C 3511 166.76  3512.76 165  3515 165  C 3517.24 165  3519 166.76  3519 169  C 3519 171.24  3517.24 173  3515 173  " fill-rule="nonzero" fill="#8c8c8c" stroke="none" />
</svg>