<?xml version="1.0" encoding="utf-8"?>
<svg version="1.1" xmlns:xlink="http://www.w3.org/1999/xlink" width="16px" height="16px" viewBox="461 161  16 16" xmlns="http://www.w3.org/2000/svg">
  <path d="M 469 161  C 473.48 161  477 164.52  477 169  C 477 173.48  473.48 177  469 177  C 464.52 177  461 173.48  461 169  C 461 164.52  464.52 161  469 161  Z " fill-rule="nonzero" fill="#ffffff" stroke="none" />
  <path d="M 469 161.5  C 473.2 161.5  476.5 164.8  476.5 169  C 476.5 173.2  473.2 176.5  469 176.5  C 464.8 176.5  461.5 173.2  461.5 169  C 461.5 164.8  464.8 161.5  469 161.5  Z " stroke-width="1" stroke="#8c8c8c" fill="none" />
  <path d="M 469 173  C 466.76 173  465 171.24  465 169  C 465 166.76  466.76 165  469 165  C 471.24 165  473 166.76  473 169  C 473 171.24  471.24 173  469 173  " fill-rule="nonzero" fill="#8c8c8c" stroke="none" />
</svg>