<?xml version="1.0" encoding="utf-8"?>
<svg version="1.1" xmlns:xlink="http://www.w3.org/1999/xlink" width="16px" height="16px" viewBox="354 161  16 16" xmlns="http://www.w3.org/2000/svg">
  <path d="M 362 161  C 366.48 161  370 164.52  370 169  C 370 173.48  366.48 177  362 177  C 357.52 177  354 173.48  354 169  C 354 164.52  357.52 161  362 161  Z " fill-rule="nonzero" fill="#f0f0f0" stroke="none" />
  <path d="M 362 161.5  C 366.2 161.5  369.5 164.8  369.5 169  C 369.5 173.2  366.2 176.5  362 176.5  C 357.8 176.5  354.5 173.2  354.5 169  C 354.5 164.8  357.8 161.5  362 161.5  Z " stroke-width="1" stroke="#8c8c8c" fill="none" />
  <path d="M 362 173  C 359.76 173  358 171.24  358 169  C 358 166.76  359.76 165  362 165  C 364.24 165  366 166.76  366 169  C 366 171.24  364.24 173  362 173  " fill-rule="nonzero" fill="#8c8c8c" stroke="none" />
</svg>