<?xml version="1.0" encoding="utf-8"?>
<svg version="1.1" xmlns:xlink="http://www.w3.org/1999/xlink" width="16px" height="16px" viewBox="1993 161  16 16" xmlns="http://www.w3.org/2000/svg">
  <path d="M 2001 161  C 2005.48 161  2009 164.52  2009 169  C 2009 173.48  2005.48 177  2001 177  C 1996.52 177  1993 173.48  1993 169  C 1993 164.52  1996.52 161  2001 161  Z " fill-rule="nonzero" fill="#f0f0f0" stroke="none" />
  <path d="M 2001 161.5  C 2005.2 161.5  2008.5 164.8  2008.5 169  C 2008.5 173.2  2005.2 176.5  2001 176.5  C 1996.8 176.5  1993.5 173.2  1993.5 169  C 1993.5 164.8  1996.8 161.5  2001 161.5  Z " stroke-width="1" stroke="#8c8c8c" fill="none" />
  <path d="M 2001 173  C 1998.76 173  1997 171.24  1997 169  C 1997 166.76  1998.76 165  2001 165  C 2003.24 165  2005 166.76  2005 169  C 2005 171.24  2003.24 173  2001 173  " fill-rule="nonzero" fill="#8c8c8c" stroke="none" />
</svg>