<?xml version="1.0" encoding="utf-8"?>
<svg version="1.1" xmlns:xlink="http://www.w3.org/1999/xlink" width="16px" height="16px" viewBox="4896 157  16 16" xmlns="http://www.w3.org/2000/svg">
  <path d="M 4904 157  C 4908.48 157  4912 160.52  4912 165  C 4912 169.48  4908.48 173  4904 173  C 4899.52 173  4896 169.48  4896 165  C 4896 160.52  4899.52 157  4904 157  Z " fill-rule="nonzero" fill="#ffffff" stroke="none" />
  <path d="M 4904 157.5  C 4908.2 157.5  4911.5 160.8  4911.5 165  C 4911.5 169.2  4908.2 172.5  4904 172.5  C 4899.8 172.5  4896.5 169.2  4896.5 165  C 4896.5 160.8  4899.8 157.5  4904 157.5  Z " stroke-width="1" stroke="#8c8c8c" fill="none" />
  <path d="M 4904 169  C 4901.76 169  4900 167.24  4900 165  C 4900 162.76  4901.76 161  4904 161  C 4906.24 161  4908 162.76  4908 165  C 4908 167.24  4906.24 169  4904 169  " fill-rule="nonzero" fill="#8c8c8c" stroke="none" />
</svg>