<?xml version="1.0" encoding="utf-8"?>
<svg version="1.1" xmlns:xlink="http://www.w3.org/1999/xlink" width="16px" height="16px" viewBox="1886 161  16 16" xmlns="http://www.w3.org/2000/svg">
  <path d="M 1894 161  C 1898.48 161  1902 164.52  1902 169  C 1902 173.48  1898.48 177  1894 177  C 1889.52 177  1886 173.48  1886 169  C 1886 164.52  1889.52 161  1894 161  Z " fill-rule="nonzero" fill="#f0f0f0" stroke="none" />
  <path d="M 1894 161.5  C 1898.2 161.5  1901.5 164.8  1901.5 169  C 1901.5 173.2  1898.2 176.5  1894 176.5  C 1889.8 176.5  1886.5 173.2  1886.5 169  C 1886.5 164.8  1889.8 161.5  1894 161.5  Z " stroke-width="1" stroke="#8c8c8c" fill="none" />
  <path d="M 1894 173  C 1891.76 173  1890 171.24  1890 169  C 1890 166.76  1891.76 165  1894 165  C 1896.24 165  1898 166.76  1898 169  C 1898 171.24  1896.24 173  1894 173  " fill-rule="nonzero" fill="#8c8c8c" stroke="none" />
</svg>