<?xml version="1.0" encoding="utf-8"?>
<svg version="1.1" xmlns:xlink="http://www.w3.org/1999/xlink" width="16px" height="16px" viewBox="5003 157  16 16" xmlns="http://www.w3.org/2000/svg">
  <path d="M 5011 157  C 5015.48 157  5019 160.52  5019 165  C 5019 169.48  5015.48 173  5011 173  C 5006.52 173  5003 169.48  5003 165  C 5003 160.52  5006.52 157  5011 157  Z " fill-rule="nonzero" fill="#f0f0f0" stroke="none" />
  <path d="M 5011 157.5  C 5015.2 157.5  5018.5 160.8  5018.5 165  C 5018.5 169.2  5015.2 172.5  5011 172.5  C 5006.8 172.5  5003.5 169.2  5003.5 165  C 5003.5 160.8  5006.8 157.5  5011 157.5  Z " stroke-width="1" stroke="#8c8c8c" fill="none" />
  <path d="M 5011 169  C 5008.76 169  5007 167.24  5007 165  C 5007 162.76  5008.76 161  5011 161  C 5013.24 161  5015 162.76  5015 165  C 5015 167.24  5013.24 169  5011 169  " fill-rule="nonzero" fill="#8c8c8c" stroke="none" />
</svg>