<?xml version="1.0" encoding="utf-8"?>
<svg version="1.1" xmlns:xlink="http://www.w3.org/1999/xlink" width="16px" height="16px" viewBox="1756 161  16 16" xmlns="http://www.w3.org/2000/svg">
  <path d="M 1764 161  C 1768.48 161  1772 164.52  1772 169  C 1772 173.48  1768.48 177  1764 177  C 1759.52 177  1756 173.48  1756 169  C 1756 164.52  1759.52 161  1764 161  Z " fill-rule="nonzero" fill="#f0f0f0" stroke="none" />
  <path d="M 1764 161.5  C 1768.2 161.5  1771.5 164.8  1771.5 169  C 1771.5 173.2  1768.2 176.5  1764 176.5  C 1759.8 176.5  1756.5 173.2  1756.5 169  C 1756.5 164.8  1759.8 161.5  1764 161.5  Z " stroke-width="1" stroke="#8c8c8c" fill="none" />
  <path d="M 1764 173  C 1761.76 173  1760 171.24  1760 169  C 1760 166.76  1761.76 165  1764 165  C 1766.24 165  1768 166.76  1768 169  C 1768 171.24  1766.24 173  1764 173  " fill-rule="nonzero" fill="#8c8c8c" stroke="none" />
</svg>