<?xml version="1.0" encoding="utf-8"?>
<svg version="1.1" xmlns:xlink="http://www.w3.org/1999/xlink" width="16px" height="16px" viewBox="4766 157  16 16" xmlns="http://www.w3.org/2000/svg">
  <path d="M 4774 157  C 4778.48 157  4782 160.52  4782 165  C 4782 169.48  4778.48 173  4774 173  C 4769.52 173  4766 169.48  4766 165  C 4766 160.52  4769.52 157  4774 157  Z " fill-rule="nonzero" fill="#f0f0f0" stroke="none" />
  <path d="M 4774 157.5  C 4778.2 157.5  4781.5 160.8  4781.5 165  C 4781.5 169.2  4778.2 172.5  4774 172.5  C 4769.8 172.5  4766.5 169.2  4766.5 165  C 4766.5 160.8  4769.8 157.5  4774 157.5  Z " stroke-width="1" stroke="#8c8c8c" fill="none" />
  <path d="M 4774 169  C 4771.76 169  4770 167.24  4770 165  C 4770 162.76  4771.76 161  4774 161  C 4776.24 161  4778 162.76  4778 165  C 4778 167.24  4776.24 169  4774 169  " fill-rule="nonzero" fill="#8c8c8c" stroke="none" />
</svg>