<?xml version="1.0" encoding="utf-8"?>
<svg version="1.1" xmlns:xlink="http://www.w3.org/1999/xlink" width="16px" height="16px" viewBox="4666 157  16 16" xmlns="http://www.w3.org/2000/svg">
  <path d="M 4674 157  C 4678.48 157  4682 160.52  4682 165  C 4682 169.48  4678.48 173  4674 173  C 4669.52 173  4666 169.48  4666 165  C 4666 160.52  4669.52 157  4674 157  Z " fill-rule="nonzero" fill="#ffffff" stroke="none" />
  <path d="M 4674 157.5  C 4678.2 157.5  4681.5 160.8  4681.5 165  C 4681.5 169.2  4678.2 172.5  4674 172.5  C 4669.8 172.5  4666.5 169.2  4666.5 165  C 4666.5 160.8  4669.8 157.5  4674 157.5  Z " stroke-width="1" stroke="#8c8c8c" fill="none" />
  <path d="M 4674 169  C 4671.76 169  4670 167.24  4670 165  C 4670 162.76  4671.76 161  4674 161  C 4676.24 161  4678 162.76  4678 165  C 4678 167.24  4676.24 169  4674 169  " fill-rule="nonzero" fill="#8c8c8c" stroke="none" />
</svg>