<?xml version="1.0" encoding="utf-8"?>
<svg version="1.1" xmlns:xlink="http://www.w3.org/1999/xlink" width="16px" height="16px" viewBox="3400 161  16 16" xmlns="http://www.w3.org/2000/svg">
  <path d="M 3408 161  C 3412.48 161  3416 164.52  3416 169  C 3416 173.48  3412.48 177  3408 177  C 3403.52 177  3400 173.48  3400 169  C 3400 164.52  3403.52 161  3408 161  Z " fill-rule="nonzero" fill="#f0f0f0" stroke="none" />
  <path d="M 3408 161.5  C 3412.2 161.5  3415.5 164.8  3415.5 169  C 3415.5 173.2  3412.2 176.5  3408 176.5  C 3403.8 176.5  3400.5 173.2  3400.5 169  C 3400.5 164.8  3403.8 161.5  3408 161.5  Z " stroke-width="1" stroke="#8c8c8c" fill="none" />
  <path d="M 3408 173  C 3405.76 173  3404 171.24  3404 169  C 3404 166.76  3405.76 165  3408 165  C 3410.24 165  3412 166.76  3412 169  C 3412 171.24  3410.24 173  3408 173  " fill-rule="nonzero" fill="#8c8c8c" stroke="none" />
</svg>