<?xml version="1.0" encoding="utf-8"?>
<svg version="1.1" xmlns:xlink="http://www.w3.org/1999/xlink" width="16px" height="16px" viewBox="1656 161  16 16" xmlns="http://www.w3.org/2000/svg">
  <path d="M 1664 161  C 1668.48 161  1672 164.52  1672 169  C 1672 173.48  1668.48 177  1664 177  C 1659.52 177  1656 173.48  1656 169  C 1656 164.52  1659.52 161  1664 161  Z " fill-rule="nonzero" fill="#ffffff" stroke="none" />
  <path d="M 1664 161.5  C 1668.2 161.5  1671.5 164.8  1671.5 169  C 1671.5 173.2  1668.2 176.5  1664 176.5  C 1659.8 176.5  1656.5 173.2  1656.5 169  C 1656.5 164.8  1659.8 161.5  1664 161.5  Z " stroke-width="1" stroke="#8c8c8c" fill="none" />
  <path d="M 1664 173  C 1661.76 173  1660 171.24  1660 169  C 1660 166.76  1661.76 165  1664 165  C 1666.24 165  1668 166.76  1668 169  C 1668 171.24  1666.24 173  1664 173  " fill-rule="nonzero" fill="#8c8c8c" stroke="none" />
</svg>