<?xml version="1.0" encoding="utf-8"?>
<svg version="1.1" xmlns:xlink="http://www.w3.org/1999/xlink" width="34px" height="34px" xmlns="http://www.w3.org/2000/svg">
  <g transform="matrix(1 0 0 1 -338 -655 )">
    <path d="M 33.800000000000004 1  C 33.800000000000004 0.5600000000000005  33.44 0.20000000000000018  33 0.20000000000000018  L 1.0600000000000005 0.20000000000000018  C 0.6200000000000006 0.20000000000000018  0.26000000000000023 0.5599999999999996  0.26000000000000023 1  L 0.26000000000000023 31.339999999999996  C 0.26000000000000023 31.39999999999999  0.26000000000000023 31.459999999999994  0.2400000000000002 31.5  C 0.18000000000000016 31.759999999999998  0.18000000000000016 32.019999999999996  0.2400000000000002 32.279999999999994  C 0.26000000000000023 32.339999999999996  0.26000000000000023 32.4  0.26000000000000023 32.44  L 0.26000000000000023 32.98  C 0.26000000000000023 33.419999999999995  0.6200000000000001 33.779999999999994  1.0600000000000005 33.779999999999994  L 33 33.779999999999994  C 33.44 33.779999999999994  33.800000000000004 33.419999999999995  33.800000000000004 32.98  L 33.800000000000004 1  Z M 32 31.739999999999995  C 32.099999999999994 31.86  32.059999999999995 31.979999999999997  32.02 32.04  C 31.980000000000004 32.099999999999994  31.92 32.2  31.760000000000005 32  L 2.0999999999999996 32  C 1.9800000000000004 32.2  1.9000000000000004 32.14  1.8599999999999994 32.08  L 1.8599999999999994 31.92  C 1.8599999999999994 31.78  1.9000000000000004 31.660000000000004  1.96 31.54  L 10.260000000000002 16.16  C 10.34 16.020000000000003  10.46 16  10.520000000000001 16  C 10.580000000000002 16  10.700000000000001 16.020000000000003  10.780000000000001 16.16  L 16.72 27.2  L 16.96 27.64  C 17.240000000000002 28.16  17.96 28.200000000000003  18.299999999999997 27.74  L 18.599999999999998 27.339999999999996  L 23.439999999999998 20.739999999999995  C 23.519999999999996 20.64  23.619999999999994 20.619999999999997  23.679999999999993 20.619999999999997  C 23.740000000000002 20.619999999999997  23.839999999999996 20.639999999999993  23.919999999999998 20.739999999999995  L 32 31.739999999999995  Z M 32 2.6000000000000005  L 32 26.86  L 32.2 29.299999999999997  L 29.04 25  L 25.200000000000003 19.78  L 25.02 19.54  C 24.96 19.46  24.880000000000003 19.38  24.800000000000004 19.34  C 24.520000000000003 19.18  24.220000000000006 19.080000000000002  23.940000000000005 19.040000000000003  L 23.900000000000006 19.040000000000003  C 23.840000000000007 19.040000000000003  23.760000000000005 19.020000000000003  23.700000000000003 19.020000000000003  C 23.640000000000008 19.020000000000003  23.560000000000006 19.020000000000003  23.500000000000004 19.040000000000003  L 23.440000000000005 19.040000000000003  C 23.400000000000006 19.040000000000003  23.340000000000007 19.06  23.300000000000008 19.06  C 23.28000000000001 19.06  23.26000000000001 19.08  23.24000000000001 19.08  C 23.20000000000001 19.099999999999994  23.14000000000001 19.099999999999994  23.100000000000012 19.119999999999997  C 23.080000000000013 19.119999999999997  23.060000000000016 19.139999999999993  23.040000000000013 19.139999999999993  C 22.980000000000018 19.159999999999993  22.920000000000016 19.179999999999996  22.860000000000014 19.219999999999995  C 22.80000000000002 19.259999999999994  22.740000000000016 19.279999999999994  22.680000000000017 19.319999999999993  C 22.66000000000002 19.33999999999999  22.64000000000002 19.33999999999999  22.62000000000002 19.359999999999992  C 22.58000000000002 19.379999999999992  22.54000000000002 19.41999999999999  22.50000000000002 19.439999999999994  C 22.48000000000002 19.45999999999999  22.460000000000022 19.479999999999993  22.440000000000023 19.479999999999993  L 22.340000000000025 19.57999999999999  L 22.300000000000026 19.61999999999999  C 22.260000000000026 19.67999999999999  22.200000000000028 19.719999999999988  22.160000000000025 19.77999999999999  L 18.520000000000028 24.73999999999999  L 17.78000000000003 25.75999999999999  L 12.180000000000028 15.379999999999988  C 11.840000000000028 14.759999999999991  11.200000000000028 14.379999999999988  10.52000000000003 14.379999999999988  C 9.820000000000029 14.379999999999988  9.180000000000032 14.759999999999991  8.860000000000031 15.379999999999988  L 2 28.33999999999999  L 2 2.6000000000000005  C 1.880000000000031 2.16  2.2400000000000313 1.8000000000000007  2.680000000000031 2  L 31.4 2  C 31.840000000000003 1.8000000000000007  32.2 2.16  32 2.6000000000000005  Z " fill-rule="nonzero" fill="#aaaaaa" stroke="none" transform="matrix(1 0 0 1 338 655 )" />
  </g>
</svg>