<?xml version="1.0" encoding="utf-8"?>
<svg version="1.1" xmlns:xlink="http://www.w3.org/1999/xlink" width="40px" height="42px" xmlns="http://www.w3.org/2000/svg">
  <g transform="matrix(1 0 0 1 -338 -701 )">
    <path d="M 38.0316306640625 30.3061274609375  L 33.3372023046875 30.3061274609375  L 33.3372023046875 25.6109206640625  C 33.3372023046875 24.567580312499995  32.554648359375 23.784987421874998  31.5112690625 23.784987421874998  C 30.467889765625 23.784987421874998  29.685335820312503 24.5675802734375  29.685335820312503 25.6109206640625  L 29.685335820312503 30.5669917578125  L 24.468400468749998 30.5669917578125  C 23.4250601171875 30.5669917578125  22.6424672265625 31.349545703124996  22.6424672265625 32.392925  C 22.6424672265625 33.436304296875  23.425021171875 34.218858242187494  24.468400468749998 34.218858242187494  L 29.424471562499996 34.218858242187494  L 29.424471562499996 39.174150898437496  C 29.424471562499996 40.217491249999995  30.207025507812496 41.000084140625  31.250404804687495 41.000084140625  C 32.29374515625 41.000084140625  33.076338046874994 40.2174912890625  33.076338046874994 39.1741508984375  L 33.076338046874994 34.218858203125  L 38.0316306640625 34.218858203125  C 39.0750488671875 34.218858203125  39.85756390625 33.436343203125006  39.85756390625 32.392924960937506  C 40.1184281640625 31.349584609375  39.0750878125 30.3061274609375  38.0316306640625 30.3061274609375  Z M 19.7352433984375 35.047263828125  L 19.7352433984375 35  L 3.403823515625 35  C 2.7983319140625 35.047263828125  2.3438239453125003 34.5927948046875  3 33.98570734375  L 3 4.332888046875002  C 2.3438239453125003 3.7269682812500022  2.798331875 3.2724992578125023  3.403823515625 4  L 32.3436059765625 4  C 32.9482801953125 3.2724992578125023  33.4028270703125 3.7270071875000026  33 4.332888046875002  L 33 20.3607447265625  L 33.4028270703125 20.3607447265625  C 33.4028270703125 20.966236328125003  33.858152421875 21.420783203125  34.4644225 21.420783203125  C 35.0698751953125 21.420783203125  35.5244220703125 20.966236328125003  35.5244220703125 20.3607447265625  L 35 20.3607447265625  L 35 3.2725381640625  C 35.5244220703125 2.0603872265625  34.4644225 0.9999594921875001  33.25188234375 1  L 2.3437850390625 1  C 1.1320233203125 0.9999595312499999  0.07124531249999999 2.0603872265625  0 3.2725381640625  L 0 35.047263828125  C 0.07124531249999999 36.2582470703125  1.132023359375 37.319025078125  2.3437850390625 37  L 19.7352433984375 37  L 19.7352433984375 37.319025078125  C 20.340696093749997 37.319025078125  20.795242968750003 36.8636997265625  20.795242968750003 36.25824703125  C 20.795165078125 35.5009544140625  20.3406571484375 35.047263828125  19.7352433984375 35.047263828125  Z M 19.5122515234375 29.784437812500006  C 20.29480546875 28.219368867187505  22.120738671875003 27.175950664062498  23.9466719140625 27.175950664062498  L 26.0334305078125 27.175950664062498  L 26.0334305078125 24.828366718749997  C 26.0334305078125 22.741569218749998  27.3377130078125 20.9156359765625  29.1636073046875 20.1331209765625  L 26.555159062499996 12.308126562499998  L 17.425531835937498 24.045851679687498  L 14.817044687499997 19.8722955859375  L 5.1664673828125 29  L 19.5122515234375 29  L 19.5122515234375 29.784437812500006  Z M 14.817044687500001 13.09025234375  C 14.817044687500001 11.525611562500002  13.51280109375 10.2213290625  11.94777109375 10.2213290625  C 10.382741093749999 10.2213290625  9.078458554687499 11.525611562500002  9.078458554687499 13.09025234375  C 9.078458554687499 14.6553601953125  10.382702148437499 15.9595648828125  11.94777109375 15.9595648828125  C 13.5128400390625 15.9595648828125  14.817044687500001 14.6553601953125  14.817044687500001 13.09025234375  Z " fill-rule="nonzero" fill="#aaaaaa" stroke="none" transform="matrix(1 0 0 1 338 701 )" />
  </g>
</svg>