<?xml version="1.0" encoding="utf-8"?>
<svg version="1.1" xmlns:xlink="http://www.w3.org/1999/xlink" width="13px" height="13px" viewBox="822 141  13 13" xmlns="http://www.w3.org/2000/svg">
  <path d="M 828.5 141  C 832.14 141  835 143.86  835 147.5  C 835 151.14  832.14 154  828.5 154  C 824.86 154  822 151.14  822 147.5  C 822 143.86  824.86 141  828.5 141  Z " fill-rule="nonzero" fill="#f0f0f0" stroke="none" />
  <path d="M 828.5 141.5  C 831.86 141.5  834.5 144.14  834.5 147.5  C 834.5 150.86  831.86 153.5  828.5 153.5  C 825.14 153.5  822.5 150.86  822.5 147.5  C 822.5 144.14  825.14 141.5  828.5 141.5  Z " stroke-width="1" stroke="#797979" fill="none" />
  <path d="M 828.5 150.75  C 826.68 150.75  825.25 149.32  825.25 147.5  C 825.25 145.68  826.68 144.25  828.5 144.25  C 830.32 144.25  831.75 145.68  831.75 147.5  C 831.75 149.32  830.32 150.75  828.5 150.75  " fill-rule="nonzero" fill="#797979" stroke="none" />
</svg>