<?xml version="1.0" encoding="utf-8"?>
<svg version="1.1" xmlns:xlink="http://www.w3.org/1999/xlink" width="13px" height="13px" viewBox="822 82  13 13" xmlns="http://www.w3.org/2000/svg">
  <path d="M 828.5 82  C 832.14 82  835 84.86  835 88.5  C 835 92.14  832.14 95  828.5 95  C 824.86 95  822 92.14  822 88.5  C 822 84.86  824.86 82  828.5 82  Z " fill-rule="nonzero" fill="#ffffff" stroke="none" />
  <path d="M 828.5 82.5  C 831.86 82.5  834.5 85.14  834.5 88.5  C 834.5 91.86  831.86 94.5  828.5 94.5  C 825.14 94.5  822.5 91.86  822.5 88.5  C 822.5 85.14  825.14 82.5  828.5 82.5  Z " stroke-width="1" stroke="#797979" fill="none" />
  <path d="M 828.5 91.75  C 826.68 91.75  825.25 90.32  825.25 88.5  C 825.25 86.68  826.68 85.25  828.5 85.25  C 830.32 85.25  831.75 86.68  831.75 88.5  C 831.75 90.32  830.32 91.75  828.5 91.75  " fill-rule="nonzero" fill="#797979" stroke="none" />
</svg>