<?xml version="1.0" encoding="utf-8"?>
<svg version="1.1" xmlns:xlink="http://www.w3.org/1999/xlink" width="13px" height="13px" viewBox="928 82  13 13" xmlns="http://www.w3.org/2000/svg">
  <path d="M 934.5 82  C 938.14 82  941 84.86  941 88.5  C 941 92.14  938.14 95  934.5 95  C 930.86 95  928 92.14  928 88.5  C 928 84.86  930.86 82  934.5 82  Z " fill-rule="nonzero" fill="#f0f0f0" stroke="none" />
  <path d="M 934.5 82.5  C 937.86 82.5  940.5 85.14  940.5 88.5  C 940.5 91.86  937.86 94.5  934.5 94.5  C 931.14 94.5  928.5 91.86  928.5 88.5  C 928.5 85.14  931.14 82.5  934.5 82.5  Z " stroke-width="1" stroke="#797979" fill="none" />
  <path d="M 934.5 91.75  C 932.68 91.75  931.25 90.32  931.25 88.5  C 931.25 86.68  932.68 85.25  934.5 85.25  C 936.32 85.25  937.75 86.68  937.75 88.5  C 937.75 90.32  936.32 91.75  934.5 91.75  " fill-rule="nonzero" fill="#797979" stroke="none" />
</svg>