<?xml version="1.0" encoding="utf-8"?>
<svg version="1.1" xmlns:xlink="http://www.w3.org/1999/xlink" width="13px" height="13px" viewBox="1034 82  13 13" xmlns="http://www.w3.org/2000/svg">
  <path d="M 1040.5 82  C 1044.14 82  1047 84.86  1047 88.5  C 1047 92.14  1044.14 95  1040.5 95  C 1036.86 95  1034 92.14  1034 88.5  C 1034 84.86  1036.86 82  1040.5 82  Z " fill-rule="nonzero" fill="#f0f0f0" stroke="none" />
  <path d="M 1040.5 82.5  C 1043.86 82.5  1046.5 85.14  1046.5 88.5  C 1046.5 91.86  1043.86 94.5  1040.5 94.5  C 1037.14 94.5  1034.5 91.86  1034.5 88.5  C 1034.5 85.14  1037.14 82.5  1040.5 82.5  Z " stroke-width="1" stroke="#797979" fill="none" />
  <path d="M 1040.5 91.75  C 1038.68 91.75  1037.25 90.32  1037.25 88.5  C 1037.25 86.68  1038.68 85.25  1040.5 85.25  C 1042.32 85.25  1043.75 86.68  1043.75 88.5  C 1043.75 90.32  1042.32 91.75  1040.5 91.75  " fill-rule="nonzero" fill="#797979" stroke="none" />
</svg>