<?xml version="1.0" encoding="utf-8"?>
<svg version="1.1" xmlns:xlink="http://www.w3.org/1999/xlink" width="13px" height="13px" viewBox="246 1249  13 13" xmlns="http://www.w3.org/2000/svg">
  <path d="M 252.5 1249  C 256.14 1249  259 1251.86  259 1255.5  C 259 1259.14  256.14 1262  252.5 1262  C 248.86 1262  246 1259.14  246 1255.5  C 246 1251.86  248.86 1249  252.5 1249  Z " fill-rule="nonzero" fill="#ffffff" stroke="none" />
  <path d="M 252.5 1249.5  C 255.86 1249.5  258.5 1252.14  258.5 1255.5  C 258.5 1258.86  255.86 1261.5  252.5 1261.5  C 249.14 1261.5  246.5 1258.86  246.5 1255.5  C 246.5 1252.14  249.14 1249.5  252.5 1249.5  Z " stroke-width="1" stroke="#797979" fill="none" />
  <path d="M 252.5 1258.75  C 250.68 1258.75  249.25 1257.32  249.25 1255.5  C 249.25 1253.68  250.68 1252.25  252.5 1252.25  C 254.32 1252.25  255.75 1253.68  255.75 1255.5  C 255.75 1257.32  254.32 1258.75  252.5 1258.75  " fill-rule="nonzero" fill="#797979" stroke="none" />
</svg>