<?xml version="1.0" encoding="utf-8"?>
<svg version="1.1" xmlns:xlink="http://www.w3.org/1999/xlink" width="12px" height="12px" viewBox="853 552  12 12" xmlns="http://www.w3.org/2000/svg">
  <path d="M 859 552  C 862.36 552  865 554.64  865 558  C 865 561.36  862.36 564  859 564  C 855.64 564  853 561.36  853 558  C 853 554.64  855.64 552  859 552  Z " fill-rule="nonzero" fill="#ffffff" stroke="none" />
  <path d="M 859 552.5  C 862.08 552.5  864.5 554.92  864.5 558  C 864.5 561.08  862.08 563.5  859 563.5  C 855.92 563.5  853.5 561.08  853.5 558  C 853.5 554.92  855.92 552.5  859 552.5  Z " stroke-width="1" stroke="#797979" fill="none" />
  <path d="M 859 561  C 857.32 561  856 559.68  856 558  C 856 556.32  857.32 555  859 555  C 860.68 555  862 556.32  862 558  C 862 559.68  860.68 561  859 561  " fill-rule="nonzero" fill="#797979" stroke="none" />
</svg>