<?xml version="1.0" encoding="utf-8"?>
<svg version="1.1" xmlns:xlink="http://www.w3.org/1999/xlink" width="12px" height="12px" viewBox="105 1791  12 12" xmlns="http://www.w3.org/2000/svg">
  <path d="M 111 1791  C 114.36 1791  117 1793.64  117 1797  C 117 1800.36  114.36 1803  111 1803  C 107.64 1803  105 1800.36  105 1797  C 105 1793.64  107.64 1791  111 1791  Z " fill-rule="nonzero" fill="#f0f0f0" stroke="none" />
  <path d="M 111 1791.5  C 114.08 1791.5  116.5 1793.92  116.5 1797  C 116.5 1800.08  114.08 1802.5  111 1802.5  C 107.92 1802.5  105.5 1800.08  105.5 1797  C 105.5 1793.92  107.92 1791.5  111 1791.5  Z " stroke-width="1" stroke="#797979" fill="none" />
  <path d="M 111 1800  C 109.32 1800  108 1798.68  108 1797  C 108 1795.32  109.32 1794  111 1794  C 112.68 1794  114 1795.32  114 1797  C 114 1798.68  112.68 1800  111 1800  " fill-rule="nonzero" fill="#797979" stroke="none" />
</svg>