<?xml version="1.0" encoding="utf-8"?>
<svg version="1.1" xmlns:xlink="http://www.w3.org/1999/xlink" width="12px" height="12px" viewBox="165 1791  12 12" xmlns="http://www.w3.org/2000/svg">
  <path d="M 171 1791  C 174.36 1791  177 1793.64  177 1797  C 177 1800.36  174.36 1803  171 1803  C 167.64 1803  165 1800.36  165 1797  C 165 1793.64  167.64 1791  171 1791  Z " fill-rule="nonzero" fill="#ffffff" stroke="none" />
  <path d="M 171 1791.5  C 174.08 1791.5  176.5 1793.92  176.5 1797  C 176.5 1800.08  174.08 1802.5  171 1802.5  C 167.92 1802.5  165.5 1800.08  165.5 1797  C 165.5 1793.92  167.92 1791.5  171 1791.5  Z " stroke-width="1" stroke="#797979" fill="none" />
  <path d="M 171 1800  C 169.32 1800  168 1798.68  168 1797  C 168 1795.32  169.32 1794  171 1794  C 172.68 1794  174 1795.32  174 1797  C 174 1798.68  172.68 1800  171 1800  " fill-rule="nonzero" fill="#797979" stroke="none" />
</svg>